# xmcd CD database file
#
# Track frame offsets:
#	183
#	17453
#	35450
#	52825
#	69228
#	86623
#	108830
#	139095
#	156968
#	170150
#	203268
#
# Disc length: 2966 seconds
#
# Revision: 0
# Processed by: cddbd v1.5.2PL0 Copyright (c) Steve Scherf et al.
# Submitted via: CDex 1.70beta2
#
DISCID=800b940b
DTITLE=Nappy Brown - I done got over
DYEAR=1900
DGENRE=Blues
TTITLE0=I done got over
TTITLE1=Who
TTITLE2=Baby let me lay it on you
TTITLE3=If you need some lovin'
TTITLE4=The land I love
TTITLE5=It's been a long time coming
TTITLE6=Down in the alley
TTITLE7=Well, well, well, baby-La
TTITLE8=That man
TTITLE9=Going down slow
TTITLE10=Baby-cry-cry-cry-Baby
EXTD=
EXTT0=
EXTT1=
EXTT2=
EXTT3=
EXTT4=
EXTT5=
EXTT6=
EXTT7=
EXTT8=
EXTT9=
EXTT10=
PLAYORDER=
